<?xml version="1.0" encoding="UTF-8" standalone="no"?>
<svg
   xmlns:dc="http://purl.org/dc/elements/1.1/"
   xmlns:cc="http://creativecommons.org/ns#"
   xmlns:rdf="http://www.w3.org/1999/02/22-rdf-syntax-ns#"
   xmlns:svg="http://www.w3.org/2000/svg"
   xmlns="http://www.w3.org/2000/svg"
   xmlns:sodipodi="http://sodipodi.sourceforge.net/DTD/sodipodi-0.dtd"
   xmlns:inkscape="http://www.inkscape.org/namespaces/inkscape"
   height="60"
   viewBox="0 0 203 60"
   width="203"
   version="1.1"
   id="svg3883"
   sodipodi:docname="appstore-android.svg"
   inkscape:version="0.92.4 (unknown)">
  <metadata
     id="metadata3889">
    <rdf:RDF>
      <cc:Work
         rdf:about="">
        <dc:format>image/svg+xml</dc:format>
        <dc:type
           rdf:resource="http://purl.org/dc/dcmitype/StillImage" />
      </cc:Work>
    </rdf:RDF>
  </metadata>
  <defs
     id="defs3887" />
  <sodipodi:namedview
     pagecolor="#ffffff"
     bordercolor="#666666"
     borderopacity="1"
     objecttolerance="10"
     gridtolerance="10"
     guidetolerance="10"
     inkscape:pageopacity="0"
     inkscape:pageshadow="2"
     inkscape:window-width="1920"
     inkscape:window-height="1018"
     id="namedview3885"
     showgrid="false"
     inkscape:zoom="8.5615764"
     inkscape:cx="110.36895"
     inkscape:cy="42.452819"
     inkscape:window-x="0"
     inkscape:window-y="32"
     inkscape:window-maximized="1"
     inkscape:current-layer="g3881" />
  <linearGradient
     id="a"
     x1="91.536%"
     x2="-37.559%"
     y1="37.788%"
     y2="55.94%">
    <stop
       offset="0"
       stop-color="#00a0ff"
       id="stop3821" />
    <stop
       offset=".00657"
       stop-color="#00a1ff"
       id="stop3823" />
    <stop
       offset=".2601"
       stop-color="#00beff"
       id="stop3825" />
    <stop
       offset=".5122"
       stop-color="#00d2ff"
       id="stop3827" />
    <stop
       offset=".7604"
       stop-color="#00dfff"
       id="stop3829" />
    <stop
       offset="1"
       stop-color="#00e3ff"
       id="stop3831" />
  </linearGradient>
  <linearGradient
     id="b"
     x1="107.728%"
     x2="-130.665%"
     y1="49.428%"
     y2="49.428%">
    <stop
       offset="0"
       stop-color="#ffe000"
       id="stop3834" />
    <stop
       offset=".4087"
       stop-color="#ffbd00"
       id="stop3836" />
    <stop
       offset=".7754"
       stop-color="#ffa500"
       id="stop3838" />
    <stop
       offset="1"
       stop-color="#ff9c00"
       id="stop3840" />
  </linearGradient>
  <linearGradient
     id="c"
     x1="71.674%"
     x2="-9.496%"
     y1="17.815%"
     y2="194.393%">
    <stop
       offset="0"
       stop-color="#ff3a44"
       id="stop3843" />
    <stop
       offset="1"
       stop-color="#c31162"
       id="stop3845" />
  </linearGradient>
  <linearGradient
     id="d"
     x1="9.531%"
     x2="45.441%"
     y1="-54.527%"
     y2="24.69%">
    <stop
       offset="0"
       stop-color="#32a071"
       id="stop3848" />
    <stop
       offset=".0685"
       stop-color="#2da771"
       id="stop3850" />
    <stop
       offset=".4762"
       stop-color="#15cf74"
       id="stop3852" />
    <stop
       offset=".8009"
       stop-color="#06e775"
       id="stop3854" />
    <stop
       offset="1"
       stop-color="#00f076"
       id="stop3856" />
  </linearGradient>
  <g
     fill="none"
     id="g3881">
    <path
       d="m195.481481 60h-187.96296248c-4.21037037 0-7.51851852-3.3-7.51851852-7.5v-45c0-4.2 3.30814815-7.5 7.51851852-7.5h187.96296248c4.210371 0 7.518519 3.3 7.518519 7.5v45c0 4.05-3.308148 7.5-7.518519 7.5z"
       fill="#000"
       id="path3859" />
    <path
       d="m195.481481 1.2c3.458519 0 6.315556 2.85 6.315556 6.3v45c0 3.45-2.857037 6.3-6.315556 6.3h-187.96296248c-3.45851852 0-6.31555556-2.85-6.31555556-6.3v-45c0-3.45 2.85703704-6.3 6.31555556-6.3zm0-1.2h-187.96296248c-4.21037037 0-7.51851852 3.3-7.51851852 7.5v45c0 4.2 3.30814815 7.5 7.51851852 7.5h187.96296248c4.210371 0 7.518519-3.3 7.518519-7.5v-45c0-4.05-3.308148-7.5-7.518519-7.5z"
       fill="#a6a6a6"
       id="path3861" />
    <path
       d="m102.402222 32.7c-3.6088887 0-6.4659257 2.7-6.4659257 6.45 0 3.6 2.857037 6.45 6.4659257 6.45 3.608889 0 6.465926-2.7 6.465926-6.45 0-3.9-2.857037-6.45-6.465926-6.45zm0 10.2c-1.954815 0-3.6088887-1.65-3.6088887-3.9s1.6540737-3.9 3.6088887-3.9 3.608889 1.5 3.608889 3.9c0 2.25-1.654074 3.9-3.608889 3.9zm-13.9844442-10.2c-3.6088889 0-6.4659259 2.7-6.4659259 6.45 0 3.6 2.857037 6.45 6.4659259 6.45s6.4659259-2.7 6.4659259-6.45c0-3.9-2.857037-6.45-6.4659259-6.45zm0 10.2c-1.9548148 0-3.6088889-1.65-3.6088889-3.9s1.6540741-3.9 3.6088889-3.9 3.6088889 1.5 3.6088889 3.9c0 2.25-1.6540741 3.9-3.6088889 3.9zm-16.6911111-8.25v2.7h6.4659259c-.1503704 1.5-.7518519 2.7-1.5037037 3.45-.9022222.9-2.4059259 1.95-4.9622222 1.95-4.06 0-7.0674074-3.15-7.0674074-7.2s3.1577777-7.2 7.0674074-7.2c2.1051852 0 3.7592592.9 4.9622222 1.95l1.9548148-1.95c-1.6540741-1.5-3.7592593-2.7-6.7666667-2.7-5.4133333 0-10.0748148 4.5-10.0748148 9.9s4.6614815 9.9 10.0748148 9.9c3.0074074 0 5.1125926-.9 6.9170371-2.85 1.8044444-1.8 2.4059259-4.35 2.4059259-6.3 0-.6 0-1.2-.1503704-1.65zm68.2681483 2.1c-.601482-1.5-2.105185-4.05-5.413334-4.05-3.308148 0-6.014814 2.55-6.014814 6.45 0 3.6 2.706666 6.45 6.315555 6.45 2.857037 0 4.661482-1.8 5.262963-2.85l-2.105185-1.5c-.751852 1.05-1.654074 1.8-3.157778 1.8-1.503703 0-2.405926-.6-3.157778-1.95l8.571112-3.6zm-8.721482 2.1c0-2.4 1.954815-3.75 3.308148-3.75 1.052593 0 2.105186.6 2.405926 1.35zm-7.067407 6.15h2.857037v-18.75h-2.857037zm-4.511111-10.95c-.751852-.75-1.954815-1.5-3.458519-1.5-3.157777 0-6.165185 2.85-6.165185 6.45s2.857037 6.3 6.165185 6.3c1.503704 0 2.706667-.75 3.308148-1.5h.150371v.9c0 2.4-1.353334 3.75-3.458519 3.75-1.654074 0-2.857037-1.2-3.157777-2.25l-2.405926 1.05c.751851 1.65 2.556296 3.75 5.714074 3.75 3.308148 0 6.014814-1.95 6.014814-6.6v-11.4h-2.706666zm-3.308148 8.85c-1.954815 0-3.608889-1.65-3.608889-3.9s1.654074-3.9 3.608889-3.9c1.954814 0 3.458518 1.65 3.458518 3.9s-1.503704 3.9-3.458518 3.9zm36.69037-16.65h-6.766667v18.75h2.857037v-7.05h3.90963c3.157778 0 6.165185-2.25 6.165185-5.85s-3.007407-5.85-6.165185-5.85zm.15037 9h-4.06v-6.45h4.06c2.105186 0 3.308149 1.8 3.308149 3.15-.150371 1.65-1.353334 3.3-3.308149 3.3zm17.292593-2.7c-2.105185 0-4.21037.9-4.962222 2.85l2.556296 1.05c.601482-1.05 1.503704-1.35 2.556296-1.35 1.503704 0 2.857037.9 3.007408 2.4v.15c-.451111-.3-1.654074-.75-2.857037-.75-2.706667 0-5.413334 1.5-5.413334 4.2 0 2.55 2.255556 4.2 4.661482 4.2 1.954815 0 2.857037-.9 3.608889-1.8h.15037v1.5h2.706667v-7.2c-.300741-3.3-2.857037-5.25-6.014815-5.25zm-.300741 10.35c-.902222 0-2.255555-.45-2.255555-1.65 0-1.5 1.654074-1.95 3.007407-1.95 1.202963 0 1.804445.3 2.556296.6-.30074 1.8-1.804444 3-3.308148 3zm15.788889-9.9-3.157778 8.1h-.15037l-3.308148-8.1h-3.007408l4.962223 11.4-2.857037 6.3h2.857037l7.668889-17.7zm-25.262222 12h2.857037v-18.75h-2.857037z"
       fill="#fff"
       id="path3865" />
    <path
       d="m15.6385185 11.25c-.4511111.45-.7518518 1.2-.7518518 2.1v33.15c0 .9.3007407 1.65.7518518 2.1l.1503704.15 18.6459259-18.6v-.3z"
       fill="url(#a)"
       id="path3867" />
    <path
       d="m40.6 36.45-6.1651852-6.15v-.45l6.1651852-6.15.1503704.15 7.3681481 4.2c2.1051852 1.2 2.1051852 3.15 0 4.35z"
       fill="url(#b)"
       id="path3869" />
    <path
       d="m40.7503704 36.3-6.3155556-6.3-18.7962963 18.75c.7518519.75 1.8044445.75 3.1577778.15z"
       fill="url(#c)"
       id="path3871" />
    <path
       d="m40.7503704 23.7-21.9540741-12.45c-1.3533333-.75-2.4059259-.6-3.1577778.15l18.7962963 18.6z"
       fill="url(#d)"
       id="path3873" />
    <path
       d="m40.6 36.15-21.8037037 12.3c-1.202963.75-2.2555556.6-3.0074074 0l-.1503704.15.1503704.15c.7518518.6 1.8044444.75 3.0074074 0z"
       fill="#000"
       opacity=".2"
       id="path3875" />
    <path
       d="m15.6385185 48.45c-.4511111-.45-.6014815-1.2-.6014815-2.1v.15c0 .9.3007408 1.65.7518519 2.1v-.15zm32.48-16.5-7.5185185 4.2.1503704.15 7.3681481-4.2c1.0525926-.6 1.5037037-1.35 1.5037037-2.1 0 .75-.6014815 1.35-1.5037037 1.95z"
       fill="#000"
       opacity=".12"
       id="path3877" />
    <path
       d="m18.7962963 11.4 29.3222222 16.65c.9022222.6 1.5037037 1.2 1.5037037 1.95 0-.75-.4511111-1.5-1.5037037-2.1l-29.3222222-16.65c-2.1051852-1.2-3.7592593-.15-3.7592593 2.25v.15c0-2.4 1.6540741-3.45 3.7592593-2.25z"
       fill="#fff"
       opacity=".25"
       id="path3879" />
    <g
       aria-label="Obtener en"
       style="font-style:normal;font-variant:normal;font-weight:normal;font-stretch:normal;font-size:40px;line-height:1.25;font-family:'Product Sans';-inkscape-font-specification:'Product Sans';letter-spacing:0px;word-spacing:0px;fill:#000000;fill-opacity:1;stroke:none"
       id="text48">
      <path
         d="m 74.141304,14.778905 q 0,2.544 -1.696,4.256 -1.712,1.728 -4.192,1.728 -2.496,0 -4.192,-1.728 -1.696,-1.712 -1.696,-4.256 0,-2.544 1.696,-4.256 1.696,-1.7280004 4.192,-1.7280004 2.496,0 4.192,1.7440004 1.696,1.712 1.696,4.24 z m -10.272,0 q 0,1.984 1.248,3.28 1.264,1.296 3.136,1.296 1.872,0 3.12,-1.296 1.264,-1.28 1.264,-3.28 0,-2 -1.264,-3.28 -1.248,-1.296 -3.12,-1.296 -1.872,0 -3.136,1.296 -1.248,1.296 -1.248,3.28 z"
         style="font-style:normal;font-variant:normal;font-weight:normal;font-stretch:normal;font-size:16px;font-family:'Product Sans';-inkscape-font-specification:'Product Sans';fill:#ffffff"
         id="path50" />
      <path
         d="m 79.782054,20.762905 q -0.864,0 -1.584,-0.368 -0.704,-0.368 -1.088,-0.976 h -0.064 v 1.088 h -1.408 V 9.0509046 h 1.472 v 3.6160004 l -0.064,1.088 h 0.064 q 0.384,-0.608 1.088,-0.976 0.72,-0.368 1.584,-0.368 1.552,0 2.624,1.216 1.104,1.232 1.104,2.96 0,1.744 -1.104,2.96 -1.072,1.216 -2.624,1.216 z m -0.24,-1.344 q 1.056,0 1.776,-0.8 0.72,-0.784 0.72,-2.032 0,-1.232 -0.72,-2.032 -0.72,-0.8 -1.776,-0.8 -1.072,0 -1.792,0.8 -0.704,0.8 -0.704,2.032 0,1.248 0.704,2.048 0.72,0.784 1.792,0.784 z"
         style="font-style:normal;font-variant:normal;font-weight:normal;font-stretch:normal;font-size:16px;font-family:'Product Sans';-inkscape-font-specification:'Product Sans';fill:#ffffff"
         id="path52" />
      <path
         d="m 87.710804,20.634905 q -0.96,0 -1.6,-0.592 -0.624,-0.592 -0.64,-1.648 v -4.384 h -1.376 v -1.344 h 1.376 v -2.4 h 1.472 v 2.4 h 1.92 v 1.344 h -1.92 v 3.904 q 0,0.784 0.304,1.072 0.304,0.272 0.688,0.272 0.176,0 0.336,-0.032 0.176,-0.048 0.32,-0.112 l 0.464,1.312 q -0.576,0.208 -1.344,0.208 z"
         style="font-style:normal;font-variant:normal;font-weight:normal;font-stretch:normal;font-size:16px;font-family:'Product Sans';-inkscape-font-specification:'Product Sans';fill:#ffffff"
         id="path54" />
      <path
         d="m 93.689304,20.762905 q -1.728,0 -2.848,-1.184 -1.12,-1.184 -1.12,-2.992 0,-1.792 1.088,-2.976 1.088,-1.2 2.784,-1.2 1.744,0 2.768,1.136 1.04,1.12 1.04,3.152 l -0.016,0.16 h -6.16 q 0.032,1.152 0.768,1.856 0.736,0.704 1.76,0.704 1.408,0 2.208,-1.408 l 1.312,0.64 q -0.528,0.992 -1.472,1.552 -0.928,0.56 -2.112,0.56 z m -2.352,-5.12 h 4.496 q -0.064,-0.816 -0.672,-1.344 -0.592,-0.544 -1.6,-0.544 -0.832,0 -1.44,0.512 -0.592,0.512 -0.784,1.376 z"
         style="font-style:normal;font-variant:normal;font-weight:normal;font-stretch:normal;font-size:16px;font-family:'Product Sans';-inkscape-font-specification:'Product Sans';fill:#ffffff"
         id="path56" />
      <path
         d="m 98.731804,12.666905 h 1.407996 v 1.088 h 0.064 q 0.336,-0.576 1.024,-0.96 0.704,-0.384 1.456,-0.384 1.44,0 2.208,0.832 0.784,0.816 0.784,2.336 v 4.928 h -1.472 v -4.832 q -0.048,-1.92 -1.936,-1.92 -0.88,0 -1.472,0.72 -0.592,0.704 -0.592,1.696 v 4.336 h -1.471996 z"
         style="font-style:normal;font-variant:normal;font-weight:normal;font-stretch:normal;font-size:16px;font-family:'Product Sans';-inkscape-font-specification:'Product Sans';fill:#ffffff"
         id="path58" />
      <path
         d="m 110.9393,20.762905 q -1.728,0 -2.848,-1.184 -1.12,-1.184 -1.12,-2.992 0,-1.792 1.088,-2.976 1.088,-1.2 2.784,-1.2 1.744,0 2.768,1.136 1.04,1.12 1.04,3.152 l -0.016,0.16 h -6.16 q 0.032,1.152 0.768,1.856 0.736,0.704 1.76,0.704 1.408,0 2.208,-1.408 l 1.312,0.64 q -0.528,0.992 -1.472,1.552 -0.928,0.56 -2.112,0.56 z m -2.352,-5.12 h 4.496 q -0.064,-0.816 -0.672,-1.344 -0.592,-0.544 -1.6,-0.544 -0.832,0 -1.44,0.512 -0.592,0.512 -0.784,1.376 z"
         style="font-style:normal;font-variant:normal;font-weight:normal;font-stretch:normal;font-size:16px;font-family:'Product Sans';-inkscape-font-specification:'Product Sans';fill:#ffffff"
         id="path60" />
      <path
         d="m 117.4538,20.506905 h -1.472 v -7.84 h 1.408 v 1.28 h 0.064 q 0.224,-0.624 0.912,-1.056 0.704,-0.448 1.376,-0.448 0.64,0 1.088,0.192 l -0.448,1.424 q -0.272,-0.112 -0.864,-0.112 -0.832,0 -1.456,0.672 -0.608,0.672 -0.608,1.568 z"
         style="font-style:normal;font-variant:normal;font-weight:normal;font-stretch:normal;font-size:16px;font-family:'Product Sans';-inkscape-font-specification:'Product Sans';fill:#ffffff"
         id="path62" />
      <path
         d="m 128.84555,20.762905 q -1.728,0 -2.848,-1.184 -1.12,-1.184 -1.12,-2.992 0,-1.792 1.088,-2.976 1.088,-1.2 2.784,-1.2 1.744,0 2.768,1.136 1.04,1.12 1.04,3.152 l -0.016,0.16 h -6.16 q 0.032,1.152 0.768,1.856 0.736,0.704 1.76,0.704 1.408,0 2.208,-1.408 l 1.312,0.64 q -0.528,0.992 -1.472,1.552 -0.928,0.56 -2.112,0.56 z m -2.352,-5.12 h 4.496 q -0.064,-0.816 -0.672,-1.344 -0.592,-0.544 -1.6,-0.544 -0.832,0 -1.44,0.512 -0.592,0.512 -0.784,1.376 z"
         style="font-style:normal;font-variant:normal;font-weight:normal;font-stretch:normal;font-size:16px;font-family:'Product Sans';-inkscape-font-specification:'Product Sans';fill:#ffffff"
         id="path64" />
      <path
         d="m 133.88805,12.666905 h 1.408 v 1.088 h 0.064 q 0.336,-0.576 1.024,-0.96 0.704,-0.384 1.456,-0.384 1.44,0 2.208,0.832 0.784,0.816 0.784,2.336 v 4.928 h -1.472 v -4.832 q -0.048,-1.92 -1.936,-1.92 -0.88,0 -1.472,0.72 -0.592,0.704 -0.592,1.696 v 4.336 h -1.472 z"
         style="font-style:normal;font-variant:normal;font-weight:normal;font-stretch:normal;font-size:16px;font-family:'Product Sans';-inkscape-font-specification:'Product Sans';fill:#ffffff"
         id="path66" />
    </g>
  </g>
</svg>
